<svg xmlns="http://www.w3.org/2000/svg" version="1.1" width="600px" height="600px" viewBox="0 0 200 200" style="overflow:hidden!important;"><defs id="SvgjsDefs3072"></defs><g id="svga-group-wrapper"><g id="svga-group-backs-single"><path id="SvgjsPath3520" d="M0 0h200v200H0V0z" fill="#ecf0f1" stroke-width="none" opacity="1" stroke="none"></path></g><g id="svga-group-humanwrap-move" transform="matrix(1,0,0,1,0,-6)"><g id="svga-group-humanwrap" transform="matrix(1.0000001,0,0,1.0000001,-0.000009950001725655966,-0.000012052151120656163)"><g id="svga-group-hair-back-move" transform="matrix(0.9999999403953552,0,0,0.9999999403953552,0.0000059604644775390625,0.00000864267349243164)"><g id="svga-group-hair-back" transform="matrix(1,0,0,1,0,0)"></g></g><g id="svga-group-humanbody-back"><path id="SvgjsPath3473" d="M166.5 181.1c-10.9-6.6-27.6-8.4-35-12.1-4.9-2.5-9.1-4.7-8.9-17.8s1.9-42.4 1.9-42.4H75.4s1.6 29.4 1.9 42.4-4.2 15.6-8.9 17.8c-7.4 3.5-24.1 5.4-35 12.1-10.8 6.6-10 18.9-10 18.9v19.7h153.3V200c-.1 0 .7-12.3-10.2-18.9z" fill="#f0c7b1" stroke-width="none" opacity="1" stroke="none"></path></g><g id="svga-group-chinshadow-single"><path id="SvgjsPath3921" d="M75.4 109c.1 2.5 1.6 29.8 1.9 42.2 6.6 6.3 8.6 13.4 10.5 15.7 2 2.4 8.9 2.4 12.2 1.5 3.3.9 10.2.9 12.2-1.5 1.9-2.3 3.9-9.4 10.4-15.6v-.1c.2-12.5 1.8-39.7 1.9-42.2H75.4z" fill="#d19271" stroke-width="none" opacity="0.65" stroke="none"></path></g><g id="svga-group-humanbody-front"><path id="SvgjsPath3474" d="M78.7 156.8c.5 4.8 1.7 9.4 3.1 13.9.8 2.3 1.6 4.6 2.6 6.9.8 2 1.7 4.2 3.1 5.9.3.4 1 0 .9-.5-.5-2.2-1.6-4.3-2.4-6.4-.9-2.2-1.7-4.4-2.5-6.6-1.5-4.4-2.8-8.9-4.1-13.3-.2-.4-.8-.3-.7.1zm41.3-1c-1.3 8.2-3.9 16.1-5.4 24.2-.1.4.4.5.6.2 3.1-7.7 4.1-16.1 5.1-24.3-.1-.2-.3-.2-.3-.1zm-25.8 11.9c-.9 3.6 1.9 8.6 6.2 7.6.5-.1.4-.8 0-1-1.4-.5-2.9-.9-3.9-2.1-1.1-1.2-1.5-2.9-1.4-4.5 0-.4-.8-.5-.9 0z" fill="#d19271" stroke-width="none" opacity="1" stroke="none"></path><path id="SvgjsPath3475" d="M177.3 219.7c-.1-6.6-.3-13.1-.3-19.7l-.3-.3c.1 0 .1 0 .2.1s.1.2.1.1v-1.4c0-.5-.1-.9-.1-1.4-.1-.9-.3-1.9-.5-2.8-.5-1.8-1.1-3.6-2-5.3-1.7-3.4-4.4-6.2-7.7-8.1-3.6-2.2-7.6-3.8-11.6-5.1-4-1.3-8.1-2.4-12.1-3.5-4-1.2-8.1-2.2-11.8-4.2-1.9-1-3.6-2.1-4.8-3.6-1.2-1.6-1.9-3.5-2.3-5.5-.8-4-.4-8.2-.3-12.4l.7-12.6 1.5-25.2.1-1.4h-1.4c-8.2 0-16.4 0-24.6.1l-24.6.3h-.9l.1.9c.8 11.9 1.6 23.8 2.1 35.7.1 3 .3 6 .2 8.9-.1 2.9-.4 5.9-1.6 8.6-.6 1.3-1.4 2.5-2.4 3.5s-2.3 1.8-3.6 2.4c-2.6 1.3-5.4 2.2-8.3 3-5.8 1.5-11.6 2.8-17.3 4.7-2.8.9-5.7 2-8.4 3.4-1.3.7-2.7 1.4-4 2.4-1.3.9-2.4 1.9-3.5 3.1-2.1 2.3-3.6 5.2-4.5 8.1-.5 1.5-.8 3-1 4.6-.1.8-.1 1.6-.1 2.4v2.3l-.2 17.9v1.3h1.4l38.3.2c12.8.1 25.5.1 38.3 0 12.8-.1 25.6-.1 38.3-.3 12.8-.2 25.6-.5 38.3-.7h.6v-.5zm-77.2-1.6H61.8l-37 .2-.1-16.6v-2.2c0-.7 0-1.4.1-2.1.1-1.4.4-2.8.8-4.2.8-2.7 2.1-5.3 3.9-7.5.9-1.1 2-2.1 3.1-2.9 1.1-.9 2.4-1.6 3.7-2.3 2.6-1.4 5.3-2.5 8.1-3.5 5.6-2 11.4-3.4 17.1-5.1 2.9-.8 5.8-1.7 8.5-3.1 1.3-.7 2.7-1.5 3.8-2.6 1.1-1.1 2-2.4 2.6-3.9 1.2-2.9 1.5-5.9 1.6-8.9 0-3-.1-6-.2-9l-1.3-34.8 23.5.4c7.7.1 15.4.1 23.1.1-.4 7.9-.8 15.9-1.1 23.8-.2 4.2-.2 8.4-.3 12.6 0 4.2-.2 8.5.8 12.8.5 2.1 1.3 4.2 2.8 6 1.4 1.7 3.4 2.9 5.3 3.8 3.9 1.9 8 2.8 12.1 3.8s8.2 2 12.2 3.3c4 1.3 7.9 2.8 11.5 5 3.2 1.9 5.8 4.7 7.5 8 .9 1.6 1.5 3.4 1.9 5.2.2.9.4 1.8.4 2.7.1.5.1.9.1 1.4V200l-.3 19c-12.6-.2-25.1-.5-37.7-.7-12.7-.1-25.5-.1-38.2-.2z" fill="#c27b55" stroke-width="none" opacity="1" stroke="none"></path></g><g id="svga-group-clothes-single"><path id="SvgjsPath7527" d="M100.8 184.4c-1.1-3-8.2-7.8-13.2-10.6s-7-4.9-10-8.8c-1.8-3.6-1-8.9-1-8.9-.1-4.7-.6-9.5-.9-14.7-8.2-1.1-13.1 3.7-14 4.6-6.5 6.3-3.1 8.5-5.7 11.5-9.2 2.1-7.1 14.2-10.7 15-8.7 1.9-21.2 7-24.2 21 0 0-1.6 9.2-1.6 26.7h160.7c0-17.5-1.6-26.7-1.6-26.7-3.2-15.2-17.6-19-26.1-21.4-1.4-.6.2-5.2-2.5-10.5-1.4-2.7-3.9-6.5-9.3-7.8 0 0-1.2-6.6-5.4-9.9-4.2-3.3-11.2-2.5-11.2-2.5s-.3 14.1-.3 16.1c0 3.2-.2 4.9-1.6 6.6s-4.4 3.9-6.9 7.5-10.1 7.5-11.7 9c-1.4 1.4-2.8 3.8-2.8 3.8z" fill="#3b0270" stroke-width="none" opacity="1" stroke="none"></path><path id="SvgjsPath7528" d="M105.6 187.4c-.6.6-1.7 3.4-1.8 5.7s1.8 11.5 2.1 13.4-1 7.4-1 8.5 2.8 2.8 3.1 1.7c.3-1.1 1.2-8.4.2-10.9s-2.2-10.1-2.2-11.6 1.1-5.6 1.6-6.5c0 0 .2-.8-.6-.9-.8-.1-1.4.6-1.4.6z" fill="#d6d6d6" stroke-width="none" opacity="1"></path><path id="SvgjsPath7529" d="m95.6 186.8.1-.2s1.8-1.3 1.9.9c0 0-1.2 2.8-1.2 4.8s2.2 11.9 2.5 14.1-2.7 10.4-3.1 10.5-2.1-.9-2.6-1.3c-.4-.4 2.5-6.9 2.8-9.9.3-2.9-.4-8.7-1.2-12.2-.8-3.5.4-5.9.8-6.6v-.1z" fill="#d6d6d6" stroke-width="none" opacity="1"></path><path id="SvgjsPath7530" d="M181.4 204.3c-.2-2.6-.4-5.2-.7-7.9l-.2-2-.1-1v-.3c0-.1 0-.2-.1-.3l-.1-.5c-.3-1.4-.7-2.7-1.2-4-1.1-2.6-2.6-5-4.4-7.1-1.9-2.1-4.1-3.8-6.5-5.2-4.6-2.7-9.6-4.2-14.5-5.5v-.1c-.1-.4-.1-.9-.1-1.4-.1-1-.1-2-.3-3.1-.3-2.1-1.1-4.2-2.1-6-1-1.8-2.4-3.6-4.1-4.9-1.5-1.2-3.2-2-5-2.6-.4-1.4-.8-2.8-1.4-4.1-.7-1.6-1.6-3.1-2.9-4.4-1.3-1.4-3.4-2.5-5-3-5.1-1.2-8.6-.4-8.6-.4s-1.2 9.6-2.9 22.5c0 0-3.9 4.9-5.3 6.8-.4.4-.7 1-1.1 1.4-.2.2-.3.4-.5.6l-.6.6c-.8.8-1.7 1.5-2.6 2.2-1.8 1.4-3.8 2.7-5.7 4-.5.3-1 .7-1.4 1.1-.5.4-.8.9-1.2 1.3-.4.5-.7.9-1 1.4l-.5.8-.2.4-.1.1-.2-.3-.3-.6c-.2-.4-.5-.7-.8-1l-1.8-1.8c-1.3-1.1-2.6-2.2-4-3.2s-2.8-1.9-4.2-2.8c-1.4-.9-2.9-1.7-4.2-2.7-2.7-2-4.5-4.6-6.6-7.1-1.1-1.3-1.7-3.5-1.9-4.9-.1-1 .6-10.8-.2-17.9 0-.4-.7-.9-5.6-1.1-5 .1-8.8 3.3-10.4 4.9-1.5 1.6-3.1 3.3-3.9 5.6-.4 1.1-.5 2.4-.7 3.4-.1.9-.3 1.4-.7 1.9-1.7.4-3.3 1.3-4.5 2.5-1.4 1.4-2.3 3-2.9 4.7-.7 1.7-1.1 3.4-1.5 4.9-.2.8-.5 1.5-.8 2.1-.1.3-.3.4-.4.5 0 0-.1 0-.1.1l-.6.1c-3.3.8-6.6 1.9-9.8 3.4-3.1 1.6-6 3.6-8.4 6.2-2.4 2.6-4.2 5.7-5.3 9-.3.8-.5 1.7-.7 2.5l-.1.7c0 .1 0 .2-.1.4v.3l-.2 1.3c-.2 1.7-.3 3.4-.5 5-.5 6.7-.6 13.4-.5 20.1 0 .4.1 1.3.5 1.3 13.4-.2 160.9.2 160.9.2.8 0 1.5-.7 1.5-1.5-.1-5-.2-10.3-.6-15.6zm-27.8-33.4zm-28.8-26.1c1 .6 4.7 2.5 6 5.1.1.8.2 1.8 0 2.6s-.6 1.5-1.1 2.3c-2.1 2.6-6.1 6.3-6.5 6.8 5.1-8.8 1.6-16.8 1.6-16.8zm-50.4 17.7c.9 1.4 4 4.3 5 5.5-.4-.3-3.9-3-4.3-3.2-1.2-.8-1.8-1.7-2.7-2.9-1.8-2.2-2.7-5.1-3.4-8-.3-1.4-.6-2.9.3-3.8 2.2-1.5 5.9-2 6.1-2.1.2 2.7-3.2 5.8-3.1 8.5-.1.3-.1.4-.1.7v.8c.1.5.2 1 .3 1.4.3.7 1.4 2.3 1.9 3.1zM48 171.8c.5-.9.8-1.8 1-2.6.5-1.7.8-3.2 1.4-4.7.5-1.5 1.3-2.8 2.3-3.8s2.3-1.7 3.7-2c.2 0 .3-.1.5-.2.1 1.1.2 2.2.4 3.3.3 1.7.7 3.4 1.4 5 .3.9.8 1.6 1.2 2.4.5.7 1 1.5 1.5 2.2 2.3 2.8 5.1 4.8 8.2 6.4 3.1 1.6 6.3 2.8 9.7 3.4-3.1-1.4-6.1-3-8.9-4.8-1.4-.9-2.8-1.8-4-2.9-1.3-1.1-2.5-2.2-3.4-3.4-.5-.6-1-1.3-1.4-1.9-.4-.7-.8-1.4-1.1-2.1-.7-1.4-1.1-3.1-1.6-4.6-.4-1.4-.7-2.9-.9-4.3.1-.2-.8-5.1 4.4-9.9 1.4-1.5 3-2.8 4.6-3.8 4.2-2.4 6.8-1.4 8.1-1.2.1 2 .2 3.1.3 5.1-.3.1-4.2 1-4.5 1.1-.7.3-1.5.5-2.2 1.1-.7.5-1.1 1.5-1.2 2.3-.1.9 0 1.7.1 2.5.4 3.1 1.3 6.3 3.3 8.9 1 1.3 2.3 2.4 3.6 3.2l3.9 2.4c1.3.8 2.6 1.5 3.9 2.2.8.6 1.5 1.2 2.3 1.7 1.4 1 2.9 1.8 4.4 2.6 1.4.8 2.9 1.7 4.3 2.6s2.8 1.9 4.1 2.9c.7.5 1.3 1.1 1.9 1.7.3.3.6.6.8.9.1.2.2.3.3.5l.2.3c.1.1.2.3.3.4 0 0 .1 0 .2-.1v-.1l.1-.1.1-.2.2-.4.5-.7c.3-.5.7-.9 1.1-1.4.4-.4.8-.9 1.2-1.2.4-.3.9-.7 1.4-1 2-1.2 4-2.4 5.9-3.8 1-.7 1.9-1.4 2.8-2.2.2-.2.4-.4.7-.6.2-.2.4-.4.6-.7.4-.5.7-.9 1.1-1.4 1.5-1.7 3.2-3.3 4.9-4.9l2.6-2.4c.7-.7 3.2-2.8 3.6-3.2 1.5-1.3 2.8-2.7 3.8-4.5 1-1.8.9-4 .2-6.1-1.1-2.4-5.6-5-6.9-5.8l-.1-2.5c.2.1 4.4-.9 8.1 1.4 2.5 1.6 4.6 5.3 5.3 6.7.6 1.4 1.1 2.9 1.4 4.4.1.5.5.9 1 1.1.1 0 .1 0 .2.1-.2 2-.6 4-1.4 5.8-.6 1.5-1.3 2.9-2.3 4-1 1.2-2.2 2.3-3.4 3.3-.6.5-1.2 1-1.8 1.6l-1.9 1.5c-1.3 1-2.6 2-3.9 2.9-2.6 1.9-5.3 3.8-7.9 5.8 3.1-1.3 6-2.8 8.8-4.5 2.8-1.7 5.6-3.6 8.1-5.8.6-.6 1.3-1.1 1.8-1.7l.9-.9.8-1c1.1-1.4 1.8-3 2.3-4.7.6-2 .8-4 .7-6.1 1.4.5 2.6 1.1 3.7 2.1 1.4 1.1 2.4 2.6 3.3 4.2.9 1.6 1.5 3.3 1.7 5.1.1.9.2 1.8.2 2.8 0 .5 0 1 .1 1.6 0 .3.1.6.2 1.1.1.2.2.5.4.7l.1.1-1.4 1.4c-.9.8-1.9 1.6-2.8 2.4-1.9 1.6-3.9 3.1-5.9 4.5-2 1.4-4 2.9-6.1 4-1.1.6-2.1 1.1-3.2 1.5-1.1.4-2.3.8-3.5 1.1-2.4.7-4.8 1.3-7.2 1.8-2.4.6-4.8 1.1-7.2 1.5l-3.6.6c-.6.1-1.2.1-1.7.1-.6 0-1.1-.2-1.6-.4l-.2-.1c.3-1.1.6-2.3 1-3.3.1-.2 0-.5-.1-.7s-.4-.3-.7-.3c-.5 0-.9.3-1.2.6.3-.4.8-.6 1.2-.6.2 0 .5.1.6.3.1.2.2.4.1.7-.5 1.2-.8 2.4-1.2 3.7-.3 1.2-.6 2.6-.4 3.9.2 2.6.6 5.1 1.1 7.7.1.6.3 1.3.4 1.9l.3.9c.1.3.2.6.2.9.2 1.2.2 2.5.2 3.8-.1 1.3-.2 2.6-.3 3.8-.1.6-.2 1.3-.3 1.9 0 .1-.1.3-.1.4-.1 0-.4 0-.6-.1-.5-.2-1-.6-1.3-1-.1-.1-.1-.2-.2-.3v-.3c0-.3.1-.6.1-.9.2-1.3.4-2.5.6-3.8.1-.6.2-1.3.2-1.9 0-.6 0-1.4-.1-2l-.8-3.8c-.5-2.5-1.1-5.1-1.4-7.6-.1-.6-.1-1.3-.1-1.9 0-.5.1-.9.2-1.4 0 0 .1-.4.1-.5.2-.6.3-1.2.6-1.9-.2.6-.4 1.2-.6 1.9 0 .1-.1.3-.1.4-1-.6-2.1-.9-3.3-1.1-1.3-.2-2.5-.3-3.8-.5.2-.8.4-1.5.7-2.2 0-.2-.1-.5-.2-.7s-.2-.4-.5-.6c-.5-.2-1 0-1.4.3.4-.2.9-.4 1.3-.2s.5.8.5 1.2c-.5 1.2-1 2.4-1.2 3.8-.1.6-.2 1.4-.1 2 .1.7.2 1.3.3 2 .4 2.6.9 5.2 1.4 7.8l.3 1.9c.1.6.2 1.3.2 1.9-.1 1.2-.4 2.5-.8 3.7-.4 1.2-.8 2.5-1.2 3.7-.2.6-.5 1.2-.7 1.8-.1.1-.1.2-.2.4-.2-.1-.4-.1-.7-.3-.3-.1-.6-.3-.8-.5-.1-.1-.2-.2-.4-.3l-.1-.1c0-.2.1-.5.2-.8l.3-.9 1.3-3.7c.4-1.3.8-2.5 1-3.9.2-1.4.1-2.7 0-4-.2-2.6-.7-5.2-1.2-7.8-.6-1.8-.6-3.9-.1-5.7h.1s0-.1-.1-.1c.2-.6.4-1.2.7-1.8-.3.5-.6 1.1-.8 1.7-.5-.6-.8-1.4-.6-1.9.2-.6.8-1 1.6-.9.7 0 1.4.4 2 .9.3.3.5.6.6 1 .1.3-.1.7-.5 1 .2 0 .5-.1.7-.3s.3-.5.3-.7c0-.5-.2-1-.5-1.4-.6-.8-1.5-1.4-2.5-1.5-.5 0-1.1.1-1.6.4s-.8.8-.8 1.4c-.1 1.1.6 1.8 1.4 2.2-.1.4-.2.7-.3 1.1l-5.5-.7c-2.6-.4-5.2-.6-7.8-1-2.6-.4-5.2-.8-7.7-1.3-1.3-.2-2.5-.5-3.7-.9-1.2-.3-2.4-.9-3.6-1.4-2.4-1-4.7-2.3-6.9-3.5-2.3-1.3-4.5-2.6-6.7-4-1.1-.7-2.2-1.4-3.2-2.2l-1.5-1.2-.6-.6c-.1-1 .1-1.3.3-1.6zm52 47.5-20.1.2-20.1.1c-13.2.1-26.3 0-39.5-.2.1-6.4.4-12.9 1.1-19.3.2-1.6.4-3.3.6-4.9l.2-1.2v-.3c0-.1 0-.2.1-.3l.1-.6c.2-.8.4-1.5.7-2.3 1.1-3 2.8-5.7 5-8s4.9-4.1 7.8-5.5c2.9-1.4 6-2.5 9.1-3.2l.6-.1c.4-.1.7-.2 1-.5.2-.1.3-.2.4-.4.5.8 1.2 1.4 1.9 2.1 1 .9 2 1.8 3 2.6 2.1 1.6 4.2 3.1 6.5 4.6 2.2 1.4 4.5 2.7 6.9 3.9 1.2.6 2.4 1.1 3.8 1.5 1.3.4 2.6.7 3.9 1 5.2 1 10.4 1.6 15.7 1.9 2.2.1 3.4.2 5.5.2-.1 1.2 0 2.5.2 3.7.5 2.6.8 5.2.9 7.8.1 1.3.1 2.6-.1 3.9-.2 1.2-.6 2.5-1 3.7l-1.3 3.7c-.1.3-.2.6-.3 1-.1.3-.2.6-.2 1.1v.3c0 .1.1.2.1.2l.1.1c.1.1.2.1.2.2.1.1.3.2.4.3.3.2.6.4.9.5.3.2.6.3 1.1.4h.4c.2-.1.2-.1.3-.2.1-.1.2-.2.2-.3.1-.2.2-.3.2-.5.3-.6.5-1.2.7-1.9.4-1.2.8-2.5 1.2-3.8.3-1.3.7-2.6.8-4 0-.8-.2-1.4-.3-2-.1-.6-.2-1.3-.4-1.9-.5-2.6-1.1-5.1-1.6-7.7-.1-.6-.2-1.3-.3-1.9-.1-.6-.1-1.3 0-1.9 0-.2.1-.4.1-.6 2.4.1 4.9-.1 7.2.7-.1.5-.2.9-.2 1.4-.1.6 0 1.3.1 1.9.3 2.6.7 5.1 1.1 7.7l.6 3.8c.2 1.2-.1 2.5-.3 3.7l-.7 3.8c-.1.3-.1.6-.1 1 0 .1 0 .5.1.7.1.2.2.4.3.5.5.6 1.1 1 1.7 1.3.3.1.7.3 1.3.2.3-.1.6-.4.7-.6.1-.2.1-.4.1-.5.1-.7.2-1.3.3-2 .2-1.3.2-2.6.3-3.9 0-1.3 0-2.6-.3-3.9-.1-.3-.2-.7-.3-1l-.3-.9c-.2-.6-.4-1.2-.5-1.9-.6-2.5-1.1-5-1.5-7.6-.2-1-.1-2.1.2-3.1.6.3 1.3.5 1.9.6.3.1.7.1 1 .1h1c1.3 0 2.5-.2 3.8-.3 5-.6 9.9-1.6 14.7-2.9 1.2-.4 2.4-.7 3.6-1.2 1.2-.4 2.4-1 3.5-1.7 2.2-1.3 4.2-2.8 6.1-4.4 1.9-1.6 3.8-3.2 5.6-5 .9-.9 1.8-1.8 2.6-2.8.4-.5.8-1 1.2-1.6.2.1.4.3.6.4.1 0 .1.1.2.1 5 1.4 9.9 2.9 14.2 5.5 4.3 2.5 7.7 6.2 9.6 10.7.4 1.1.8 2.3 1.1 3.5l.1.4v.4l.1.9.2 1.9c.3 2.6.5 5.1.7 7.7.3 4.7.5 9.4.5 14.1l-38.6.2c-13.2.2-26.6.4-40 .6zm4.7-30.4c-.3-.4-.4-.8-.4-1.1 0-.4.1-.7.3-1 .4-.5 1.2-.7 1.9-.6.7.1 1.5.5 1.8 1.1.2.3.2.6.1 1s-.4.7-.7 1.1c.4-.1.8-.4 1.1-.9.3-.4.3-1.1.1-1.6-.4-1-1.4-1.6-2.4-1.8-.5-.1-1-.1-1.5.1s-1 .5-1.2 1c-.2.4-.3 1-.2 1.5.3.6.7 1 1.1 1.2zM41 209.2c-.7-2.7-1.6-5.3-2.8-7.8-1.2-2.5-2.7-4.9-4.5-7-1.8-2.1-3.8-4.1-6.2-5.4 1.1.8 2.1 1.8 3 2.8 1 1 1.8 2 2.6 3.1 1.6 2.2 3 4.5 4.2 7 .6 1.2 1.2 2.4 1.6 3.7.5 1.2.9 2.6 1.4 3.8.4 1.3.7 2.6 1.1 3.9.3 1.3.6 2.7.9 4-.1-1.4-.3-2.7-.5-4.1-.2-1.3-.4-2.6-.8-4zm125.6-13.9c-1.8 1.9-3.3 4.1-4.5 6.4-1.2 2.3-2.2 4.8-3 7.3-.4 1.2-.6 2.5-1 3.8l-.6 3.9c.4-1.2.7-2.5 1.1-3.7.4-1.2.8-2.5 1.2-3.7.2-.6.5-1.2.7-1.8s.5-1.2.8-1.8c.5-1.2 1.1-2.3 1.7-3.5 1.2-2.2 2.6-4.4 4.2-6.4.8-1 1.7-1.9 2.6-2.9.9-.9 1.9-1.8 3-2.4-2.4 1.1-4.4 2.9-6.2 4.8z" fill="#2a0051" stroke-width="none" opacity="1" stroke="none"></path></g><g id="svga-group-head" transform="matrix(0.9999999403953552,0,0,0.9999999403953552,0.0000059604644775390625,0.00000864267349243164)"><g id="svga-group-ears-left-move" transform="matrix(1,0,0,1,0,0)"><g id="svga-group-ears-left" transform="matrix(1,0,0,1,0,0)"><path id="SvgjsPath4590" d="M61.3 90s-2.5-2.4-5.4-3.5-6.1.7-7.1 3.7c-1 2.9 1.3 15.1 5 19.5s6.2 4.8 8.7 2.5c2.5-2.3 7-10.8-1.2-22.2z" fill="#f0c7b1" stroke-width="none" opacity="1"></path><path id="SvgjsPath4591" d="M62.6 91.8c.4.6.8 1.3 1.2 1.9.4.6.7 1.4 1.1 2 .3.7.6 1.4.9 2.2.2.8.5 1.5.6 2.4.1.4.2.8.2 1.2l.1 1.2c0 1.7-.2 3.4-.7 4.9-.5 1.6-1.2 3-2.2 4.2-.2.3-.5.6-.8.8-.3.2-.6.5-.9.7-.6.4-1.3.7-2.1.8-.7.1-1.5 0-2.2-.3s-1.3-.7-1.8-1.2c-.6-.5-1.1-1-1.6-1.6s-.9-1.1-1.4-1.8c-1.7-2.6-2.6-5.7-3.4-8.7-.4-1.5-.8-3-1.1-4.6s-.6-3.2-.5-4.9c0-.4.1-.9.2-1.3.1-.2.1-.4.2-.6l.3-.6c.4-.7.9-1.3 1.5-1.8 1.2-1 2.6-1.4 4-1.2.7.1 1.4.3 2 .6.6.3 1.2.7 1.8 1.1 1.2.8 2.3 1.6 3.3 2.6l1.3 2zm-4.7-4.1c-.6-.3-1.2-.6-1.8-.8-.6-.2-1.2-.3-1.8-.3-1.2.1-2.3.6-3.3 1.4-.5.4-.9.9-1.2 1.5-.2.3-.3.6-.4.9-.1.3-.2.6-.2.9-.2 1.4-.1 3 .1 4.6.2 1.5.4 3.1.8 4.6.8 3 1.9 6 3.6 8.2.9 1.1 1.9 2.1 3 2.9s2.2 1.3 3.3 1.1c.5-.1 1.1-.3 1.6-.7.5-.4 1-.8 1.4-1.3.8-1 1.5-2.3 1.9-3.7.5-1.4.7-2.8.7-4.3s-.2-3-.4-4.5c-.6-3-2-5.8-3.7-8.2-1.3-.9-2.4-1.7-3.6-2.3z" fill="#e1ac8f" stroke-width="none" opacity="1"></path><path id="SvgjsPath4592" d="M52.6 89.6c3.3.6 5.4 6.1 6 9.8.1.1.1.2.2.3.4.6-.4 1.2-.8.6-.5-.8-1-1.6-1.8-1.9-1.4-.5-2.1 1.1-1.8 2.6.4 1.9 1.6 3 2.6 4.4.1.1 0 .3-.1.2-1.7-1-4.3-4.8-3.1-7.2.9-1.7 2.3-1.4 3.4-.4-.8-2.1-1.4-4.3-3-5.9-.5-.5-1.5-1.4-2.2-1.3-1.3.2-1.3 2.1-1.3 3.4-.1 1.7.1 3.4.4 5 0 .2-.2.2-.3.1-.7-2.4-2-10.4 1.8-9.7z" fill="#d19271" stroke-width="none" opacity="1"></path></g></g><g id="svga-group-ears-right-move" transform="matrix(1,0,0,1,0,0)"><g id="svga-group-ears-right" transform="matrix(1,0,0,1,0,0)"><path id="SvgjsPath4593" d="M138.7 90s2.5-2.4 5.4-3.5 6.1.7 7.1 3.7c1 2.9-1.3 15.1-5 19.5s-6.2 4.8-8.7 2.5c-2.5-2.3-7-10.8 1.2-22.2z" fill="#f0c7b1" stroke-width="none" opacity="1"></path><path id="SvgjsPath4594" d="M138.6 89.9c1.1-1 2.2-1.8 3.3-2.6.6-.4 1.2-.7 1.8-1.1.6-.3 1.3-.6 2-.6 1.4-.2 2.8.3 4 1.2.6.5 1.1 1.1 1.5 1.8l.3.6c.1.2.2.4.2.6.1.4.2.9.2 1.3.1 1.7-.2 3.3-.5 4.9s-.7 3.1-1.1 4.6c-.9 3-1.8 6-3.4 8.7-.4.7-.9 1.2-1.4 1.8-.5.6-1 1.1-1.6 1.6s-1.2.9-1.8 1.2c-.7.3-1.4.4-2.2.3-.7-.1-1.4-.4-2.1-.8-.3-.2-.6-.4-.9-.7-.3-.3-.6-.5-.8-.8-1-1.2-1.7-2.6-2.2-4.2s-.7-3.3-.7-4.9l.1-1.2c0-.4.1-.8.2-1.2.1-.8.4-1.6.6-2.4.3-.7.6-1.5.9-2.2.4-.7.7-1.4 1.1-2 .4-.6.8-1.3 1.2-1.9l1.3-2zm.1.1c-1.7 2.4-3 5.2-3.7 8.2-.3 1.5-.5 3-.4 4.5s.3 2.9.7 4.3 1.1 2.6 1.9 3.7c.4.5.8 1 1.4 1.3.5.4 1 .6 1.6.7 1.1.2 2.2-.3 3.3-1.1 1-.8 2.1-1.8 3-2.9 1.7-2.3 2.8-5.2 3.6-8.2.4-1.5.6-3.1.8-4.6s.3-3.1.1-4.6c0-.4-.1-.6-.2-.9-.1-.3-.3-.6-.4-.9-.3-.6-.7-1-1.2-1.5-.9-.8-2.1-1.3-3.3-1.4-.6 0-1.2.1-1.8.3-.6.2-1.2.5-1.8.8-1.4.6-2.5 1.4-3.6 2.3z" fill="#e1ac8f" stroke-width="none" opacity="1"></path><path id="SvgjsPath4595" d="M147.4 89.6c-3.3.6-5.4 6.1-6 9.8-.1.1-.1.2-.2.3-.4.6.4 1.2.8.6.5-.8 1-1.6 1.8-1.9 1.4-.5 2.1 1.1 1.8 2.6-.4 1.9-1.6 3-2.6 4.4-.1.1 0 .3.1.2 1.7-1 4.3-4.8 3.1-7.2-.9-1.7-2.3-1.4-3.4-.4.8-2.1 1.4-4.3 3-5.9.5-.5 1.5-1.4 2.2-1.3 1.3.2 1.3 2.1 1.3 3.4.1 1.7-.1 3.4-.4 5 0 .2.2.2.3.1.7-2.4 2-10.4-1.8-9.7z" fill="#d19271" stroke-width="none" opacity="1"></path></g></g><g id="svga-group-faceshape-wrap" transform="matrix(1,0,0,1,0,0)"><g id="svga-group-faceshape-single"><path id="SvgjsPath3910" d="M143.6 82v-.3c-1.3-29.9-21.1-46.4-43.6-46.4S57.7 51.8 56.4 81.7v.3c0 2.4.3 22.6 3.7 32.7 3.6 10.8 8.9 14.9 16.2 21.4 7.4 6.5 9.5 14.2 11.5 16.6 2 2.4 8.9 2.4 12.2 1.5 3.3.9 10.2.9 12.2-1.5s4.1-10.2 11.5-16.6c7.4-6.5 12.6-10.6 16.2-21.4 3.3-10.1 3.7-30.3 3.7-32.7z" fill="#f0c7b1" stroke-width="none" opacity="1" stroke="none"></path><path id="SvgjsPath3911" d="M112.2 152.7c2-2.4 4.1-10.2 11.5-16.6 7.4-6.5 12.6-10.6 16.2-21.4 3.3-10.1 3.7-30.3 3.7-32.7v-.3c-1.3-29.9-21.1-46.4-43.6-46.4S57.7 51.8 56.4 81.7v.3c0 2.4.3 22.6 3.7 32.7 3.6 10.8 8.9 14.9 16.2 21.4 7.4 6.5 9.5 14.2 11.5 16.6 2 2.4 8.9 2.4 12.2 1.5 3.3.9 10.2.9 12.2-1.5zm-11.5-1.1-.7-.2-.7.2c-1.8.5-4.2.6-6.3.4-1-.1-2.6-.1-4-2.2-1.1-2-2.2-4.4-3.6-6.5C82.4 138 75 132 75 132c-1.8-1.6-3.6-3.2-5.3-4.8-1.6-1.7-3.1-3.4-4.3-5.4-1.2-1.9-4.8-6-6.5-20-2.2-19-.6-26.8-.6-26.8 2.4-14.5 8.2-22.5 13.4-27.3 0 0 2.9-3.5 12.1-7.3 4.4-1.7 9-2.6 13.6-2.8 8.8-.5 13.9 1.5 13.9 1.5 9.2 2.7 17.2 7.9 22.8 15.6l2 3c.6 1 1.1 2.1 1.7 3.2.6 1.1 3 5.5 4.4 13.8.1.6.5 4 .5 4 .1 1.3.2 3.5.2 4.8-.1 7.3-.6 14.5-1.9 21.6-.7 3.8-1.6 7.5-3.1 11s-3.5 6.7-6 9.4-5.4 5.1-8.4 7.6c-1.4 1.2-3.1 2.6-4.5 4.1-1.5 1.5-2.7 3.2-3.8 4.9-1.1 1.7-2.1 3.5-3 5.3-.5.9-.9 1.7-1.3 2.5-1.3 2.4-4.4 2.2-5.3 2.2-1.6 0-3.5-.1-4.9-.5z" fill="#c27b55" stroke-width="none" opacity="1" stroke="none"></path></g></g><g id="svga-group-mouth-single-move" transform="matrix(1,0,0,1,0,0)"><g id="svga-group-mouth-single" transform="matrix(1,0,0,1,0,0)"><path id="SvgjsPath4502" d="M85.34 126.92s2.37-.51 5.3-1.54c2.87-1.01 6.09-2.05 8.83-2.14 3.98-.13 6.69.33 9.92 1.61 4.77 1.89 7.89 2.17 7.89 2.17s-2.81 2.71-10.17 4.41c-7.36 1.7-14.09.36-17.26-1.47-3.17-1.83-4.51-3.04-4.51-3.04z" fill="#da7c87" stroke-width="none" opacity="1" transform="translate(0 2)" stroke="none"></path><path id="SvgjsPath4503" d="M118.94 126.28c-.72.2-2.15 1.09-8.57.73-2.91-.16-5.81-.6-8.73-.65-2.85-.05-5.66.33-8.49.57-6.77.58-8.72-.58-9.3-.72-.16-.04-.27.19-.11.27 5.39 2.95 12.12.73 17.9.89 5.62.16 12.32 2.08 17.53-.92.27-.16.09-.26-.23-.17z" fill="#cb5f6c" stroke-width="none" opacity="1" transform="translate(0 2)" stroke="none"></path></g></g><g id="svga-group-eyes-left-move" transform="matrix(1,0,0,1,0,0)"><g id="svga-group-eyes-left" transform="matrix(1,0,0,1,0,0)"><g id="svga-group-eyesback-left"><path id="SvgjsPath4954" d="M87.1 98.5s.3.9 1.3.7c1-.2 1.1-2.3 1-2.9-.1-.6-.5-3-1.7-4.2-1.2-1.2-3.1-1.7-3.1-1.7l-13.8.6s-1.1 3.4.3 5c1.3 1.7 4 3.3 6.9 3.3 2.9.1 6.7-.1 9.1-.8z" fill="#ffffff" stroke-width="none" opacity="1"></path></g><g id="svga-group-eyesiriswrapper-left" transform="matrix(1,0,0,1,0,0)"><g id="svga-group-eyesiriscontrol-left" transform="matrix(1,0,0,1,-1,1)"><g id="svga-group-eyesiris-left" transform="matrix(1,0,0,1,0,0)"><path id="SvgjsPath5219" d="M80.1 87.8c3.2 0 5.7 2.6 5.7 5.7s-2.6 5.7-5.7 5.7-5.7-2.6-5.7-5.7 2.5-5.7 5.7-5.7z" fill="#681711" stroke-width="none" opacity="1" stroke="none"></path><path id="SvgjsPath5220" d="M80.1 88.1c3 0 5.5 2.4 5.5 5.5 0 3-2.4 5.5-5.5 5.5-3 0-5.5-2.4-5.5-5.5s2.4-5.5 5.5-5.5m0-.6c-3.3 0-6 2.7-6 6s2.7 6 6 6 6-2.7 6-6-2.7-6-6-6z" fill="#490500" stroke-width="none" opacity="1" stroke="none"></path><path id="SvgjsPath5221" d="M77 95.1c0 1.4.6 2.7 1.4 3.6.5.2 1.1.2 1.6.2 3 0 5.5-2.4 5.5-5.5 0-1.1-.3-2.2-.9-3-.7-.4-1.5-.6-2.4-.6-2.9.1-5.2 2.5-5.2 5.3z" fill="#77251f" stroke-width="none" opacity="1" stroke="none"></path><path id="SvgjsPath5222" d="M80.1 90.6c1.6 0 2.9 1.3 2.9 2.9s-1.3 2.9-2.9 2.9-2.9-1.3-2.9-2.9 1.2-2.9 2.9-2.9z" fill="#000000" stroke-width="none" opacity="1"></path><path id="SvgjsPath5223" d="M78.8 90.4c.8 0 1.5.7 1.5 1.5s-.7 1.5-1.5 1.5-1.5-.7-1.5-1.5.7-1.5 1.5-1.5zm2.9 4.3c.5 0 1 .4 1 1s-.4 1-1 1-1-.4-1-1 .4-1 1-1z" fill="#ffffff" stroke-width="none" opacity="1"></path></g></g></g><g id="svga-group-eyesfront-left"><path id="SvgjsPath4962" d="M69.4 94.6c0 6.4 4.7 11.5 10.6 11.5s10.6-5.2 10.6-11.5S85.9 83.1 80 83.1s-10.6 5.1-10.6 11.5zM71 96c-1.3-1.7-.3-5-.3-5l13.8-.7s1.9.5 3.1 1.7 1.6 3.6 1.7 4.2 0 2.7-1 2.9c-1 .2-1.3-.7-1.3-.7-2.4.8-6.2 1-9.2.9S72.4 97.7 71 96z" fill="#f0c7b1" stroke-width="none" opacity="1"></path><path id="SvgjsPath4963" d="M66.8 92.4c1.1-.4 2.2-.6 3.3-.8-1.6 2.6 1.1 6.1 3.5 7.2 3.8 1.8 9.4 1.4 13.4 0v.1c.6.6 1.6 1.1 2.3.3.7-.8.4-2.6.3-3.5-.3-2-1.5-4.2-3.3-5.1 1 0 1.9.1 2.8.5.6.3.7.5 1.4.7h.1c1-3.5-8-2.3-9.4-2.2-3.1.1-6.1.4-9.2.6-1.9.1-4.2 0-5.5 1.6-.3.2-.1.7.3.6zm4.3-.9c2.7-.3 5.4-.3 8.1-.5 1.9-.1 3.7-.2 5.6-.3 1.7.5 3 1.6 3.6 3.3.4 1.1 1.4 5.3-1 4.6.1 0 .2-.1.3-.1.3-.1.2-.5-.1-.5-3.6.7-7.3 1.5-11 .7-1.8-.4-3.6-1.1-4.7-2.7-1.2-1.5-1-2.8-.8-4.5z" fill="#000000" stroke-width="none" opacity="1"></path></g></g></g><g id="svga-group-eyes-right-move" transform="matrix(1,0,0,1,0,0)"><g id="svga-group-eyes-right" transform="matrix(1,0,0,1,0,0)"><g id="svga-group-eyesback-right"><path id="SvgjsPath4955" d="M112.9 98.5s-.3.9-1.3.7c-1-.2-1.1-2.3-1-2.9.1-.6.5-3 1.7-4.2 1.2-1.2 3.1-1.7 3.1-1.7l13.8.7s1.1 3.4-.3 5c-1.3 1.7-4 3.3-6.9 3.3-2.9 0-6.7-.2-9.1-.9z" fill="#ffffff" stroke-width="none" opacity="1"></path></g><g id="svga-group-eyesiriswrapper-right" transform="matrix(1,0,0,1,0,0)"><g id="svga-group-eyesiriscontrol-right" transform="matrix(1,0,0,1,-1,1)"><g id="svga-group-eyesiris-right" transform="matrix(1,0,0,1,0,0)"><path id="SvgjsPath5224" d="M119.9 87.8c3.2 0 5.7 2.6 5.7 5.7s-2.6 5.7-5.7 5.7-5.7-2.6-5.7-5.7 2.6-5.7 5.7-5.7z" fill="#681711" stroke-width="none" opacity="1" stroke="none"></path><path id="SvgjsPath5225" d="M119.9 88.1c3 0 5.5 2.4 5.5 5.5 0 3-2.4 5.5-5.5 5.5s-5.5-2.4-5.5-5.5c.1-3.1 2.5-5.5 5.5-5.5m0-.6c-3.3 0-6 2.7-6 6s2.7 6 6 6 6-2.7 6-6-2.6-6-6-6z" fill="#490500" stroke-width="none" opacity="1" stroke="none"></path><path id="SvgjsPath5226" d="M116.9 95.1c0 1.4.6 2.7 1.4 3.6.5.2 1.1.2 1.6.2 3 0 5.5-2.4 5.5-5.5 0-1.1-.3-2.2-.9-3-.7-.4-1.5-.6-2.4-.6-2.9.1-5.2 2.5-5.2 5.3z" fill="#77251f" stroke-width="none" opacity="1" stroke="none"></path><path id="SvgjsPath5227" d="M119.9 90.6c1.6 0 2.9 1.3 2.9 2.9s-1.3 2.9-2.9 2.9-2.9-1.3-2.9-2.9 1.3-2.9 2.9-2.9z" fill="#000000" stroke-width="none" opacity="1"></path><path id="SvgjsPath5228" d="M118.7 90.4c.8 0 1.5.7 1.5 1.5s-.7 1.5-1.5 1.5-1.5-.7-1.5-1.5.7-1.5 1.5-1.5zm2.8 4.3c.5 0 1 .4 1 1s-.4 1-1 1-1-.4-1-1 .5-1 1-1z" fill="#ffffff" stroke-width="none" opacity="1"></path></g></g></g><g id="svga-group-eyesfront-right"><path id="SvgjsPath4964" d="M120 83.1c-5.9 0-10.6 5.2-10.6 11.5s4.7 11.5 10.6 11.5 10.6-5.2 10.6-11.5-4.8-11.5-10.6-11.5zm2 16.3c-2.9.1-6.8-.2-9.2-.9 0 0-.3.9-1.3.7-1-.2-1.1-2.3-1-2.9s.5-3 1.7-4.2 3.1-1.7 3.1-1.7l13.8.7s1.1 3.4-.3 5c-1.2 1.6-3.8 3.2-6.8 3.3z" fill="#f0c7b1" stroke-width="none" opacity="1"></path><path id="SvgjsPath4967" d="M133.6 91.7c-1.3-1.6-3.6-1.4-5.5-1.6-3.1-.2-6.1-.5-9.2-.6-1.4-.1-10.4-1.3-9.4 2.2h.1c.6-.2.7-.3 1.4-.7.9-.5 1.8-.6 2.8-.5-1.8.9-3 3-3.3 5.1-.1.9-.5 2.7.3 3.5.7.8 1.7.3 2.3-.3v-.1c4 1.4 9.5 1.8 13.4 0 2.3-1.1 5.1-4.6 3.5-7.2 1.1.2 2.2.4 3.3.8.3.2.5-.3.3-.6zm-5.4 4.3c-1.1 1.5-2.9 2.3-4.7 2.7-3.7.8-7.4 0-11-.7-.3-.1-.4.4-.1.5.1 0 .2.1.3.1-2.4.7-1.4-3.5-1-4.6.7-1.7 1.9-2.9 3.6-3.3 1.9.1 3.7.2 5.6.3 2.7.1 5.4.2 8.1.5.1 1.7.3 3-.8 4.5z" fill="#000000" stroke-width="none" opacity="1"></path></g></g></g><g id="svga-group-facehighlight-single"></g><g id="svga-group-eyebrows-left-move" transform="matrix(1,0,0,1,0,0)"><g id="svga-group-eyebrows-left-rotate" transform="matrix(1,0,0,1,0,0)"><g id="svga-group-eyebrows-left" transform="matrix(1,0,0,1,0,0)"><path id="SvgjsPath5488" d="M93.4 84.4c.1-.2.5-.1.5.1 0 1.2-.6 2.3-1.2 3.3-.2.3-.6 0-.5-.3.4-.9.7-2.1 1.2-3.1zm-1.9-3.2c.9 1.7.9 3.8.5 5.6-.1.3-.5.2-.5-.1.1-1.8-.3-3.6-.4-5.4 0-.2.3-.3.4-.1zm-4.1-.7c-.1-.3.2-.7.5-.5 1.6 1.2 2.6 3.4 3.2 5.2.1.3-.4.5-.6.2-.5-.9-1-1.7-1.5-2.5s-1.2-1.6-1.6-2.4zm-4.3-.9c-.3-.3 0-.7.3-.6 1.1.3 2.1 1.2 2.8 2 .9.9 1.5 1.9 2 3.1.2.4-.3.7-.5.3-.6-1-1.3-1.9-2.1-2.7-.8-.9-1.8-1.4-2.5-2.1zm-4.3.3c-.4-.2-.4-.8.1-.8 2.1-.2 4.4 1.2 5.8 2.8 0-.1-.1-.1-.1-.2-.1-.2.1-.3.3-.3.4.2.8.6 1.1 1 .3.4.6.8.8 1.2.1.2-.2.4-.3.2-.3-.4-.7-.8-1-1.1l-.6-.6.1.1c.2.3-.2.8-.5.5-.8-.6-1.6-1.3-2.6-1.7-.9-.5-2-.7-3.1-1.1zm-5.1.9c2-1 4.4-.4 6.3.8.3.2.1.6-.2.5-2-.8-3.9-.7-5.9-.7-.3-.1-.4-.5-.2-.6zm-3.2 1c2.1-.5 4.5.1 6.5.9.3.1.2.6-.1.5-2.1-.4-4.2-.4-6.3-.8-.5.1-.4-.5-.1-.6zm-3.8 3.6c-.2.1-.5-.2-.3-.4 1.3-1.8 4-2.1 6-1.6.4.1.3.7-.1.7-1-.1-2 0-3 .2-.9.3-1.7.8-2.6 1.1zm-1.6 1.9c.9-1.2 2.9-1.8 4.3-2 .4-.1.6.5.2.7-.8.2-1.6.6-2.3.9-.6.3-1.2.8-1.9 1-.3.1-.5-.4-.3-.6zM78.4 80c1.7.2 3.5 1.6 4.5 2.9.2.3-.2.5-.4.3-.7-.6-1.3-1.1-2.1-1.6-.7-.4-1.5-.7-2.1-1.1-.2-.1-.2-.6.1-.5zm-4.3 1.7c-.2 0-.2-.3 0-.3 1.4-.2 3.2.1 4.4.9.2.1.1.3-.1.3-.7-.1-1.4-.4-2.1-.5-.8-.2-1.5-.2-2.2-.4zm13.5.1c1.1.8 1.9 2.3 2 3.6 0 .2-.3.2-.4.1l-.9-1.8c-.3-.6-.7-1.1-1-1.7 0-.1.2-.3.3-.2zm5 3.2c0-1-.2-2.1-.2-3.1 0-.2.3-.2.3-.1.5 1 .6 2.2.3 3.2-.1.3-.4.3-.4 0z" fill="#2a232b" stroke-width="none" opacity="1"></path></g></g></g><g id="svga-group-eyebrows-right-move" transform="matrix(1,0,0,1,0,0)"><g id="svga-group-eyebrows-right-rotate" transform="matrix(1,0,0,1,0,0)"><g id="svga-group-eyebrows-right" transform="matrix(1,0,0,1,0,0)"><path id="SvgjsPath5489" d="M106.6 84.4c-.1-.2-.5-.1-.5.1 0 1.2.6 2.3 1.2 3.3.2.3.6 0 .5-.3-.4-.9-.7-2.1-1.2-3.1zm1.9-3.2c-.9 1.7-.9 3.8-.5 5.6.1.3.5.2.5-.1-.1-1.8.3-3.6.4-5.4 0-.2-.3-.3-.4-.1zm4.1-.7c.1-.3-.2-.7-.5-.5-1.6 1.2-2.6 3.4-3.2 5.2-.1.3.4.5.6.2.5-.9 1-1.7 1.5-2.5s1.2-1.6 1.6-2.4zm4.3-.9c.3-.3 0-.7-.3-.6-1.1.3-2.1 1.2-2.8 2-.9.9-1.5 1.9-2 3.1-.2.4.3.7.5.3.6-1 1.3-1.9 2.1-2.7.8-.9 1.8-1.4 2.5-2.1zm4.3.3c.4-.2.4-.8-.1-.8-2.1-.2-4.4 1.2-5.8 2.8 0-.1.1-.1.1-.2.1-.2-.1-.3-.3-.3-.4.2-.8.6-1.1 1-.3.4-.6.8-.8 1.2-.1.2.2.4.3.2.3-.4.7-.8 1-1.1l.6-.6-.1.1c-.2.3.2.8.5.5.8-.6 1.6-1.3 2.6-1.7.9-.5 2-.7 3.1-1.1zm5.1.9c-2-1-4.4-.4-6.3.8-.3.2-.1.6.2.5 2-.8 3.9-.7 5.9-.7.3-.1.4-.5.2-.6zm3.2 1c-2.1-.5-4.5.1-6.5.9-.3.1-.2.6.1.5 2.1-.4 4.2-.4 6.3-.8.5.1.5-.5.1-.6zm3.8 3.6c.2.1.5-.2.3-.4-1.3-1.8-4-2.1-6-1.6-.4.1-.3.7.1.7 1-.1 2 0 3 .2.9.3 1.7.8 2.6 1.1zm1.6 1.9c-.9-1.2-2.9-1.8-4.3-2-.4-.1-.6.5-.2.7.8.2 1.6.6 2.3.9.6.3 1.2.8 1.9 1 .3.1.5-.4.3-.6zM121.6 80c-1.7.2-3.5 1.6-4.5 2.9-.2.3.2.5.4.3.7-.6 1.3-1.1 2.1-1.6.7-.4 1.5-.7 2.1-1.1.2-.1.2-.6-.1-.5zm4.3 1.7c.2 0 .2-.3 0-.3-1.4-.2-3.2.1-4.4.9-.2.1-.1.3.1.3.7-.1 1.4-.4 2.1-.5.8-.2 1.5-.2 2.2-.4zm-13.5.1c-1.1.8-1.9 2.3-2 3.6 0 .2.3.2.4.1l.9-1.8c.3-.6.7-1.1 1-1.7 0-.1-.2-.3-.3-.2zm-5 3.2c0-1 .2-2.1.2-3.1 0-.2-.3-.2-.3-.1-.5 1-.6 2.2-.3 3.2.1.3.4.3.4 0z" fill="#2a232b" stroke-width="none" opacity="1"></path></g></g></g><g id="svga-group-beardwrap" transform="matrix(1,0,0,1,0,0)"><g id="svga-group-beard-single-move" transform="matrix(1,0,0,1,0,0)"><g id="svga-group-beard-single" transform="matrix(1,0,0,1,0,0)"></g></g></g><g id="svga-group-mustache-single-move" transform="matrix(1,0,0,1,0,0)"><g id="svga-group-mustache-single" transform="matrix(1,0,0,1,0,0)"></g></g><g id="svga-group-nose-single-move" transform="matrix(1,0,0,1,0,0)"><g id="svga-group-nose-single" transform="matrix(1,0,0,1,0,0)"><path id="SvgjsPath4251" d="M105.53 106.38c.26.82 3.73 4.55 3.79 6.57.06 2.02-2.08 4.04-4.74 2.21 0 0-2.46 1.89-4.74 1.64s-3.54-1.83-3.54-1.83-2.15.82-3.98.19c-1.83-.63-2.27-2.84-.95-4.86 1.33-2.02 3.6-5.49 4.1-7.45.52-1.96 7.09-5.62 10.06 3.53z" fill="#f0c7b1" stroke-width="none" opacity="1" transform="translate(0 1)" stroke="none"></path><path id="SvgjsPath4252" d="M105.49 105.94c-.16-.2-.5.06-.36.28.93 1.43 1.95 2.83 2.81 4.31.59 1 1.18 2.25.77 3.46-.67 1.98-2.42 1.87-3.83 1.11.53-.68.84-1.48.77-2.36-.02-.22-.32-.41-.48-.2-1.4 1.76-2.29 3.6-4.89 3.7-2.75.11-4.52-2.12-5.25-4.51-.06-.21-.35-.16-.36.05-.07 1.1.27 2.16.87 3.06-.4.07-.8.15-1.2.17-1.28.08-1.49-.02-2.33-1.09-.89-1.12-.89-1.4-.4-2.65.23-.58.58-1.08.91-1.61 1.08-1.68 2.04-3.39 2.75-5.26 1.43-3.73 2.05-7.86 1.36-11.81-.03-.17-.29-.12-.29.04-.01 3.2-.21 6.36-1.15 9.44-.97 3.19-2.81 5.59-4.34 8.46-.8 1.49-1.13 3.46.23 4.74 1.35 1.28 3.43.87 5.01.27.94 1.02 2.24 1.72 3.61 1.85 1.55.14 3.58-.61 4.83-1.88 1.45 1.61 4.23.86 4.96-1.19 1.09-3.12-2.3-6.24-4-8.38z" fill="#c27b55" stroke-width="none" opacity="1" transform="translate(0 1)" stroke="none"></path><path id="SvgjsPath4253" d="M102.24 108.78c-.89-.83-2.3-1.07-3.3-.3-.36.28-.58.63-.67 1-.17.06-.34.16-.48.3-.76.74-.44 1.9.21 2.59.55.59 1.45.87 2.24.83.97-.05 1.85-.51 2.39-1.33.63-.95.44-2.31-.39-3.09z" fill="#f8d5c3" stroke-width="none" opacity="1" transform="translate(0 1)" stroke="none"></path></g></g><g id="svga-group-hair-front" transform="matrix(1,0,0,1,0,0)"><path id="SvgjsPath6997" d="M55.7 57.9s-10.6 13-9.5 22.2l2.7-3.3s-5.2 15.1-9.3 20.1c0 0 4.1-1.3 6.8-4.6v7.3s4.3-10.4 8.9-14.7c0 0 1.5 8.5 6.2 12.6 0 0-1-9.5 1-15.5 0 0 4.8-10.6 4.5-16.2 0 0 .8 5.6 3.3 8.1 0 0-2.1-11 3.3-17.2 0 0 6.4 2.1 18.2-1.5 0 0 12-1 22.1 11.6 0 0-.4-8.5-5.6-12.8 0 0 7.3 3.5 11.4 2.9 0 0 7.3 5.8 11.2 6 0 0 2.3 8.1 2.3 14.5 0 0 2.9-5.2 3.3-7.7 0 0-1.9 17.2 2.7 24.2 0 0 1-5.6 2.9-7 0 0 6.8 10.2 11.6 11.8 0 0-5.6-6.8-6-14.3l5.8 3.5s-5.6-6.4-5.8-16.1c0 0 3.9.6 6 4.1 0 0-5-13.9-12-18.8 0 0 7.6 5.4 13.4 3.5 0 0-13-5.8-16.2-14.1 0 0 5.4.6 8.7 3.7 0 0-7.6-12.4-20.3-13.9 0 0 8.3-8.3 8.1-12.2 0 0-13.9 8.7-25.2 8.5 0 0 4.6-7.9 4.4-11.6 0 0-7.9 9.7-12 10.5 0 0-.2-3.3 1.2-7.4 0 0-6 8.5-8.7 9.7L97 27s-6 8.1-11 9.7c0 0 1.3-2.9.6-5.6 0 0-1.7 3.1-3.7 4.1 0 0 1.6-6 1.3-7.9 0 0-4.4 7-6.2 7.9l-.2-5.4s-4.3 8.1-7.9 10.1c0 0-.8-2.9-1.9-4.3 0 0-1 3.9-1.3 5.8 0 0-.6-8.5-6.4-11.2 0 0 3.1 13.9.8 16.8 0 0-4.5-7.7-6-8.7 0 0 1.9 9.5 1.5 11.8 0 0-7.9 4.8-9.5 9.7 0 0 6-2.5 9.1-3.7l-.5 1.8z" fill="#6b4e40" stroke-width="none" opacity="1" stroke="none"></path><path id="SvgjsPath6998" d="M116.5 37.2c-7.8 8.4-16.7 13.2-27.8 15.5-.4.1-.3.8.1.8 10.9-1.2 21.4-7.3 28-16 .1-.3-.2-.5-.3-.3zm.6-1.2c-5.2 2.6-10.4 4.2-16 5.3-.3 0-.2.5.1.5 5.7-.5 11.3-2.4 16.2-5.4.2-.1 0-.5-.3-.4zm12.5-7.4c-2.3 4-5.2 7.1-8.7 10.1-.2.2.1.6.3.4 3.8-2.4 6.8-6.2 8.7-10.3.2-.2-.2-.4-.3-.2zM76 50.8c4.7-2.5 7.2-6.5 8.8-11.4.2-.4-.5-.6-.7-.3-1.1 1.5-2.4 2.7-4 3.8-.3.2-.1.6.3.5 1.9-.8 3.2-2.2 4.3-3.9-.2-.1-.5-.2-.7-.3-.8 4.7-4.4 8.7-8.4 11-.3.2.1.8.4.6zm6.4-1.2c2.8-1.3 5.7-3.1 7.6-5.5.2-.2-.1-.5-.3-.3-2.4 2.1-4.7 4-7.5 5.4-.3.1-.1.5.2.4zM71.3 54c-2.4 2.5-4.2 6.1-3.8 9.6.1.5.7.5.7 0 .4-3.5 1.2-6.4 3.5-9.1.4-.3-.1-.8-.4-.5zM60.9 32.3c1.8 6.7 1.1 11.8-.8 18.3-.1.4.4.6.7.3 3.6-5.3 3.5-13.2.9-18.9-.3-.4-.9-.1-.8.3zM56.3 42c-.3 3.8 1.1 7.8 4.2 10.1.3.2.6-.2.4-.5-2.5-2.8-4.1-5.8-4.2-9.6 0-.3-.4-.3-.4 0zm.2 15.9c-3.3 3.1-6 7.9-6.8 12.4-.1.3.5.6.6.3.9-2.2 1.7-4.3 2.8-6.4 1.1-2.1 2.6-3.9 3.9-5.8.3-.4-.2-.8-.5-.5zM60.1 74c-1.6 4.2-2.5 8.8-1.9 13.3.1.4.7.5.7 0 0-4.5.3-8.8 1.7-13.2.1-.3-.4-.4-.5-.1zM46.8 94.8c2.8-3.7 5.7-7.6 7.9-11.7.2-.4-.3-.8-.6-.5-3 3.6-5.4 7.8-7.8 11.8-.2.4.3.7.5.4zm52.1-40.7c4.2.6 6.7 3.1 9.2 6.3.2.2.5 0 .4-.2-1.2-3.9-5.7-6.3-9.5-6.6-.3 0-.4.5-.1.5zm10.8-2.8c5.8 2.1 12.3 3.2 18.5 2.5.4 0 .4-.5 0-.5-6.3-.3-12.3-.8-18.4-2.4-.3-.2-.4.3-.1.4zm18.1 8.5c4.6.6 8.9 1.9 13.3 3.2.4.1.6-.4.3-.6-4.2-2-8.9-2.8-13.5-2.9-.3-.1-.4.2-.1.3zm10.7 8.4c-1.3 6.1-1.5 12.8.2 18.8.1.3.7.3.7-.1-.8-6.4-1.1-12.3-.3-18.7 0-.3-.6-.4-.6 0zm-22.2-21.4c5.2.1 10.2.9 15.1 2.8-.1-.2-.1-.5-.2-.7-1.4 1.2-2.8 1.9-4.6 2.2-.2 0-.2.4.1.4 2 0 3.6-.6 5.1-1.9.3-.2.1-.6-.2-.7-4.9-2-10-2.9-15.3-2.6-.3 0-.4.5 0 .5zm23.9 8c1.4 1.4 3.3 2.9 5.3 3.3.3.1.5-.4.2-.6-.8-.5-1.8-.8-2.6-1.3-.9-.5-1.8-1.1-2.6-1.8-.2-.2-.6.1-.3.4zm2.6 7.4c2.6 2.4 4.3 5.1 6.2 8 .2.3.7.1.6-.2-1.1-3.3-3.8-6.1-6.5-8.1-.2-.3-.5.1-.3.3zm-1.3 8.4c.6 4.8 3 9.9 7 12.8.3.2.6-.2.4-.5-3.4-3.7-5.8-7.4-6.9-12.4-.1-.2-.5-.1-.5.1zm.9 12.9c.5 3.1 1.7 6.6 4.1 8.8.3.2.7-.1.5-.4-1.8-2.8-3.3-5.3-3.8-8.6-.2-.5-.9-.3-.8.2z" fill="#7a6155" stroke-width="none" opacity="1" stroke="none"></path><path id="SvgjsPath6999" d="M106.1 29.8c2.9-1.7 5.5-4.2 7.5-7-1.2 3.5-2.8 6.7-4.7 10-.3.5.4.8.7.4 2.8-4 4.6-8.6 5.8-13.3.1-.5-.5-.8-.8-.3-2.6 3.8-5.4 6.8-8.9 9.8-.4.1 0 .6.4.4zm-17.4 6c2.8-2.1 5.4-4.6 7.6-7.3-.6 1.8-1.4 3.5-2.2 5.2-.2.4.2.9.6.6 3.2-2.2 6.2-5 8.2-8.4-.3 1.1-.7 2.2-1 3.3-.1.3.3.4.4.1.6-1.9 1.1-3.9 1.8-5.7.2-.4-.4-.6-.7-.3-2.3 3.5-4.7 6.6-8 9.2.8-1.9 1.4-3.8 2-5.8.1-.3-.3-.6-.6-.3-2.6 3.3-5.4 6.3-8.6 9 0 .2.2.6.5.4zm-6.1-1.2c-.1.5.6.6.7.2.9-2.6 1.2-5.3 1.2-8 0-.5-.7-.7-.9-.2-1.4 2.7-3.1 5.2-5.2 7.4-.1-1.5-.1-3-.2-4.5 0-.4-.7-.7-.8-.2-1.4 3-3.2 5.6-5.2 8.3-.2.3.2.5.4.3 2-1.9 3.5-4.2 4.7-6.6 0 1.3.1 2.6.1 3.9 0 .4.5.7.8.3 2.1-2 3.8-4.3 5.2-6.8 0 1.9-.3 3.9-.8 5.9zM57 49c-.2-3.3-.8-6.7-1.4-10 2.2 2.5 3.8 5.5 4.9 8.6.1.3.7.2.6-.2-1.3-3.8-3.4-7-5.9-10.1-.2-.3-.8-.1-.8.3.5 3.8 1 7.7 1.9 11.5.2.4.7.3.7-.1zm-9.5 11.5c2.6-1.2 5.5-2.2 7.9-3.8.4-.3.2-.9-.3-.8-2.2.7-4.4 1.8-6.5 2.8 1.7-2.8 3.9-5.2 6.5-7.3.4-.3-.1-.9-.5-.7-3.3 2.3-5.9 5.4-7.7 9-.4.6.1 1.1.6.8zm-2.9 32.4-3.6 3c4.3-5.6 7.3-12.1 8.5-19.1.7-.8 1.3-1.6 2.1-2.3.5-.5-.3-1.3-.8-.8s-.9.9-1.3 1.4c-.2-.1-.5 0-.5.2s-.1.3-.1.5c-.7.9-1.4 1.8-2 2.7 1.7-7.4 4.8-14.2 9.1-20.5.3-.4-.4-.8-.7-.4-5.4 7-8.6 15.2-10.1 23.9-.1.6.7 1 1 .4.6-1.2 1.3-2.4 2.1-3.5-2 7.6-5.6 14.4-11 20.2-.4.5.1 1.3.7.9 2.7-1.7 5.2-3.6 7.3-6 .3-.4-.3-1-.7-.6zm17.3-8.8c-1.4 4.1-1.5 8.5-.9 12.8-2.8-3.5-4.3-7.4-5.2-11.8 0 0 0-.1-.1-.1.3-.4.6-.8.9-1.3.2-.3-.2-.6-.4-.3-4 4.2-7 9.4-9.4 14.6 0-4.5 1.1-8.8 2.9-13 .2-.4-.3-.7-.5-.3-2.6 4.8-3.6 10-3.2 15.4 0 .4.7.7.9.2 2.3-5.2 5.3-9.9 8.5-14.7.5 4.9 2.9 9.4 6.2 13 .3.3.8 0 .8-.4-1-4.8-.6-9.3.3-14.1-.2-.2-.7-.3-.8 0zm10.9-26.6c-2.6 3-3.5 7.4-3.5 11.2 0 1 .1 1.9.2 2.9 0 .1.1.4.2.8l-1-1.5c-.8-1.6-1.2-3.3-1.6-5-.1-.3-.7-.3-.6.1.4 3.3 1.9 6.2 3.8 8.9.2.3.7.1.6-.3-1.6-6.3-.2-11.1 2-16.9.3-.2 0-.4-.1-.2zm-11 18.9c1.2-5.5 3-10.6 5.8-15.5.2-.3-.3-.6-.4-.3-2.9 4.9-4.9 10.1-5.7 15.7 0 .2.2.3.3.1zM76.2 40c-2.2 3.5-4.4 7-6.8 10.4-.1.2.1.4.3.2 2.5-2.7 4.8-5.8 6.6-9.1.2 3.1-.8 6.1-2.7 8.6-.3.3.2.8.5.5 2.6-3 3.6-6.7 2.9-10.6-.1-.3-.6-.3-.8 0zM61.7 60.1c.3-.3-.2-.8-.5-.5-2.2 2.1-4 4.6-5.2 7.4-.4 1-2.2 4.3-.6 5.1.2.1.4.1.6-.1 1-.7 1.6-1.9 2.3-2.9 1-1.3 2-2.6 2.9-4 .2-.4-.3-.8-.6-.5-1 1.1-1.9 2.4-2.8 3.6-.1.1-1.5 2.2-1.6 2.2-.5-.2.1-1.4.2-1.7 1-3.3 2.9-6.2 5.3-8.6zm31.5-14.8c-3.1 1.9-5.9 3.8-9.4 5-.4.1-.2.8.2.7 3.4-1 7-2.6 9.6-5.1.3-.3 0-.8-.4-.6zm21.1-12.5c6.7-1 14.3-3.4 20-7.5-1.1 2.6-2.7 4.9-4.6 7-.2.2.1.6.3.4 2.6-2 4.5-4.7 5.3-7.9v-.2c.3-.2.6-.4.8-.7.2-.2-.1-.6-.3-.4-7.2 3.6-13.7 6.9-21.6 8.8-.4 0-.3.5.1.5zm12.5 4.9c8.4 1.2 14.5 5.1 19.4 11.5-3.7-3.2-8.7-4.8-13.5-4.6-.5 0-.4.7 0 .7 5.2.5 9.4 2.1 13.9 4.9.1.1.3 0 .4-.1.2.3.4.6.7.9.3.4.9.1.7-.4-3.5-8.1-12.8-13.5-21.4-13.6-.5 0-.6.6-.2.7zm-12.6 29.1c.1-5.2-2.4-10.5-7.2-12.9-.2-.1-.5.2-.3.4 3.8 3 6.3 6.8 6.8 11.6-4.5-6.6-12.4-10.6-20.3-10.9 12.1-4.1 22.9-12.2 30.6-22.1.3-.3 0-1-.5-.8-4.9 1.7-9.8 3.6-14.7 5.6-.3.1-.1.6.2.5 3.1-1 6.2-2 9.2-3.1.8-.3 3.2-1.6 3.9-1.5.2 0-1.4 1.8-1.8 2.2-3.6 4-7.6 7.5-12.1 10.5-8.9 6-18.7 9.2-29.2 11.1-.3 0-.2.5.1.5 4.5-.3 8.9-1.2 13.2-2.5 0 .1.1.2.2.2 8.9.8 15.8 5.1 21.3 12 .3.3.8-.1.6-.4.1-.3.1-.3 0-.4zm19.9-10c.4-.1.3-.8-.1-.7-8.6.7-16.2-.2-24.6-1.8-.2 0-.4.3-.2.4 3.2 1.4 6.8 2.3 10.4 2.7 5.7 4.4 13.5 7.2 20.7 6.4.4 0 .4-.5 0-.6-7.2-.8-13.1-2.2-19.2-5.7 4.4.4 8.8.1 13-.7zm5.1-9.6c-.1-.2-.5 0-.4.2 3.1 6 8.5 11.2 15.1 13.2-4.7.2-8.6-.9-12.4-4.2-.2-.2-.6.1-.4.3 3.2 4.2 9.6 6.4 14.6 4.4l.1-.1c.4.1.6-.5.2-.7-7-2.8-12.8-6.6-16.8-13.1zm17.1 53c-2.1-2.4-4.2-4.6-5.7-7.4-1.4-2.6-1.9-5.2-2.8-7.9 1.5 1.2 3.2 2.2 5.1 2.9l.3.3c.1.2.4.1.5-.1.1 0 .1.1.2.1.3.1.5-.4.2-.6-.3-.2-.6-.3-.9-.5-3.2-4.7-4.6-9.3-5.2-15 2.1 1.4 4.1 2.9 5.8 4.9 0 .1.1.2.1.3.1.2.4.2.5 0 .1-.1.2-.3.1-.4-.1-.1-.1-.2-.2-.3-1.7-7.8-7.4-14.6-13.6-19.2-.2-.1-.4.2-.2.3 5.6 4.8 9 10.4 12.1 16.8-1.9-2-4.2-3.6-6.8-4.3-.3-.1-.4.3-.2.5.6.3 1.2.7 1.8 1.1 0 .1-.1.1-.1.2-.4 5 1.3 10.2 4.3 14.3-4.3-2.7-7.8-6.1-10.2-10.7-.2-.4-.7-.1-.6.3 1.4 3.3 3.6 6.3 6.4 8.6-.3 4.1 1.8 8.9 4.7 12.6-4.2-2.8-7.6-6.2-9.8-10.7 0-.1 0-.2-.1-.2-.6-1.3-1.2-2.8-1.6-4.3-.1-.3-.6-.2-.5.1.3 1.5.8 3.1 1.4 4.6-1.2 1.7-2.3 4.3-2.3 6.6-2.6-7.9-3.1-15.1-2-23.4 0-.3-.2-.4-.4-.3.1-.5.2-1 .2-1.5.1-.4-.6-.4-.7-.1-1 2.8-1.9 5.5-3 8.2.2-4-.6-8-2-11.8-.1-.3-.6-.2-.5.2 1.5 4.6 1.7 9.3 1.6 14.1-.1.2-.2.4-.3.7-.2.4.4.6.7.3 1.1-1.7 2.1-3.7 2.8-5.7-1.1 7 .1 14.5 3.2 20.7.1.2.4.2.6.1v.1c.1.3.5.3.6 0 .5-1.3.4-2.8.8-4.2.3-1 .7-2 1.1-3 2.3 5.1 6.4 9.5 11.7 11.3.8.8 1.6 1.6 2.5 2.2.3 0 .6-.5.4-.8zm-96.8-70c1.7 5.5 1.7 10.5 1.2 16.1 0 .5.7.5.8.1 1.3-5.3.6-11-1.2-16.1 3.4 3 5.3 6.2 6.1 10.9 0 .2.4.2.4-.1.1-4.6-2.7-9.7-6.9-11.7-.2-.1-.5.2-.3.4-.1 0-.1.2-.1.4z" fill="#5c3d2e" stroke-width="none" opacity="1" stroke="none"></path></g><g id="svga-group-glasses-single-move" transform="matrix(1,0,0,1,0,0)"><g id="svga-group-glasses-single" transform="matrix(1,0,0,1,0,0)"><path id="SvgjsPath6511" d="M95.79 91.36s.32-2.16-3.48-3.45c-2.88-.98-5.89-1.11-8.31-1.11s-10.25-.09-12.23.09c-1.98.19-4.96.38-5.95 3.32-.99 2.94.33 7.88 4.3 10.35 3.97 2.47 12.23 2.66 17.52 1.04 5.28-1.6 7.71-5.27 8.15-10.24z" fill="#ffffff" stroke-width="none" opacity="0.44"></path><path id="SvgjsPath6512" d="M104.21 91.36s-.32-2.16 3.48-3.45c2.88-.98 5.89-1.11 8.31-1.11s10.25-.09 12.23.09c1.98.19 4.96.38 5.95 3.32.99 2.94-.33 7.88-4.3 10.35-3.97 2.47-12.23 2.66-17.52 1.04-5.28-1.6-7.71-5.27-8.15-10.24z" fill="#ffffff" stroke-width="none" opacity="0.44"></path><path id="SvgjsPath6513" d="M95.78 90.77s3.57-1.69 8.41 0v.98s-5.18-.98-8.5 0l.09-.98z" fill="#070201" stroke-width="none" opacity="1"></path><path id="SvgjsPath6514" d="M79.82 103.04c-4.1 0-7.71-.78-9.9-2.15-3.57-2.22-4.97-6.32-4.76-9.18l.01-.13h-2.4v-2.06h2.93l.03-.07c1.22-2.47 3.98-2.73 5.81-2.91l.19-.02c.85-.08 2.8-.12 5.97-.12 1.45 0 2.93.01 4.18.01.9.01 1.62.01 2.12.01 2.38 0 5.48.13 8.43 1.13 3.9 1.32 3.76 3.59 3.73 3.84-.49 5.46-3.32 9.02-8.42 10.58-2.24.69-5.06 1.07-7.92 1.07zm-2.07-15.89c-3.18 0-5.13.04-5.95.12l-.19.02c-2.03.19-4.56.43-5.44 3.05-.99 2.93.44 7.61 4.14 9.91 2.07 1.29 5.53 2.02 9.51 2.02 2.77 0 5.58-.37 7.7-1.02 4.85-1.48 7.43-4.73 7.89-9.93.02-.21.1-1.93-3.23-3.06-2.85-.97-5.87-1.09-8.19-1.09-.5 0-2.22-.01-2.22-.01-1.16 0-2.6-.01-4.02-.01z" fill="#26120b" stroke-width="none" opacity="1"></path><path id="SvgjsPath6515" d="M77.7 86.53c1.45 0 2.92.01 4.17.01h.05c.85 0 1.57.01 2.07.01 2.37 0 5.46.13 8.39 1.12 3.8 1.29 3.68 3.47 3.65 3.71-.48 5.41-3.29 8.93-8.33 10.47-2.24.68-5.04 1.06-7.89 1.06-4.08 0-7.66-.78-9.84-2.13-3.53-2.2-4.91-6.24-4.7-9.06l.02-.27h-2.41v-1.81h2.89l.07-.14c1.19-2.41 3.91-2.67 5.71-2.84l.19-.02c.85-.08 2.79-.11 5.96-.11m2.12 15.87c2.82 0 5.57-.36 7.74-1.03 4.9-1.5 7.51-4.78 7.98-10.06.02-.2.1-2.01-3.31-3.17-2.86-.97-5.9-1.1-8.23-1.1-.5 0-1.22 0-2.07-.01h-.15c-1.17-.01-2.6-.01-4.03-.01-3.19 0-5.14.04-5.96.12l-.19.02c-1.96.18-4.64.44-5.55 3.14-1 2.97.44 7.73 4.19 10.06 2.09 1.3 5.58 2.04 9.58 2.04M77.7 86.28c-2.53 0-4.97.02-5.98.12l-.19.02c-1.89.18-4.66.44-5.91 2.98h-2.98v2.31h2.39c-.23 3.15 1.4 7.16 4.82 9.29 2.41 1.5 6.19 2.17 9.97 2.17 2.85 0 5.71-.38 7.96-1.07 5.15-1.57 8.01-5.17 8.51-10.68.03-.27.17-2.62-3.82-3.97-2.97-1.02-6.09-1.15-8.47-1.15-.5 0-1.22 0-2.07-.01-1.26-.01-2.76-.01-4.23-.01zm2.12 15.87c-3.6 0-7.21-.62-9.45-2.01-3.65-2.27-5.06-6.88-4.09-9.77.86-2.55 3.34-2.78 5.34-2.97l.19-.02c.97-.09 3.44-.12 5.94-.12 1.48 0 2.98.01 4.17.01.85 0 1.58.01 2.08.01 2.31 0 5.32.12 8.15 1.08 3.27 1.11 3.16 2.81 3.15 2.91v.02c-.46 5.15-3.01 8.36-7.8 9.82-2.15.68-4.91 1.04-7.68 1.04z" fill="#070201" stroke-width="none" opacity="1"></path><path id="SvgjsPath6516" d="M120.18 103.04c-2.86 0-5.68-.38-7.93-1.06-5.1-1.56-7.93-5.11-8.42-10.58-.03-.26-.17-2.52 3.73-3.84 2.95-1 6.06-1.13 8.43-1.13.5 0 1.22 0 2.07-.01 1.3-.01 2.78-.02 4.23-.02 3.17 0 5.12.04 5.97.12l.18.02c1.83.17 4.59.43 5.81 2.91l.04.07h2.93v2.06h-2.39l.01.13c.21 2.86-1.19 6.96-4.76 9.18-2.19 1.36-5.8 2.15-9.9 2.15zm2.07-15.89c-1.42 0-2.86.01-4.03.01 0 0-1.73.01-2.22.01-2.32 0-5.35.12-8.19 1.09-3.32 1.13-3.25 2.85-3.23 3.04.47 5.23 3.05 8.47 7.89 9.95 2.12.65 4.93 1.02 7.7 1.02 3.98 0 7.44-.74 9.51-2.02 3.7-2.3 5.13-6.98 4.14-9.91-.88-2.62-3.41-2.86-5.45-3.05l-.19-.02c-.8-.08-2.75-.12-5.93-.12z" fill="#26120b" stroke-width="none" opacity="1"></path><path id="SvgjsPath6517" d="M122.3 86.28v.25c3.17 0 5.11.04 5.96.12l.19.02c1.8.17 4.52.43 5.71 2.84l.07.14h2.89v1.81h-2.41l.02.27c.21 2.83-1.17 6.87-4.7 9.06-2.18 1.35-5.76 2.13-9.84 2.13-2.85 0-5.65-.38-7.89-1.06-5.04-1.54-7.85-5.06-8.33-10.47-.03-.24-.16-2.42 3.65-3.71 2.93-.99 6.02-1.12 8.39-1.12.5 0 1.22 0 2.07-.01h.06c1.25-.01 2.72-.01 4.17-.01v-.26m-2.13 16.12c4 0 7.49-.74 9.58-2.04 3.75-2.33 5.2-7.08 4.19-10.06-.91-2.7-3.59-2.95-5.55-3.14l-.19-.02c-.82-.08-2.77-.12-5.96-.12-1.42 0-2.86.01-4.03.01h-.15c-.85 0-1.58.01-2.07.01-2.33 0-5.37.12-8.23 1.1-3.41 1.16-3.33 2.97-3.31 3.19.47 5.26 3.08 8.54 7.98 10.04 2.17.67 4.91 1.03 7.74 1.03m2.12-16.12c-1.47 0-2.97.01-4.23.02-.85 0-1.57.01-2.07.01-2.39 0-5.51.13-8.47 1.14-3.99 1.35-3.85 3.71-3.82 3.97.49 5.52 3.36 9.11 8.51 10.68 2.26.69 5.11 1.07 7.96 1.07 3.78 0 7.56-.67 9.97-2.17 3.42-2.13 5.05-6.14 4.82-9.29h2.39V89.4h-2.98c-1.25-2.53-4.02-2.8-5.91-2.98l-.19-.02c-1.01-.1-3.45-.12-5.98-.12zm-2.12 15.87c-2.77 0-5.53-.36-7.67-1.01-4.79-1.46-7.34-4.68-7.8-9.82v-.02c-.01-.1-.13-1.8 3.15-2.91 2.83-.96 5.84-1.08 8.15-1.08.5 0 1.22 0 2.08-.01 1.19-.01 2.69-.01 4.17-.01 2.5 0 4.96.02 5.94.12l.19.02c2 .19 4.48.42 5.34 2.97.97 2.88-.44 7.5-4.09 9.77-2.25 1.37-5.86 1.98-9.46 1.98z" fill="#070201" stroke-width="none" opacity="1"></path></g></g></g></g></g><rect id="svga-credit-rect" width="200" height="15" x="0" y="185" fill="#ecf0f1" opacity="0.5" style="display: none;"></rect><text id="svga-credit-text" font-family="Avenir Next, Roboto, Helvetica, Arial, sans-serif" font-size="10px" text-anchor="start" font-weight="400" size="10px" anchor="start" weight="400" fill="#333333" x="33.298973083496094" y="182.60824728012085" style="display: none;"><tspan id="SvgjsTspan3125" dy="13" x="33.298973083496094">Created on AvatarMaker.com</tspan></text></g></svg>